<?xml version="1.0" encoding="utf-8"?>
<!-- Generator: Adobe Illustrator 21.0.0, SVG Export Plug-In . SVG Version: 6.00 Build 0)  -->
<svg version="1.1" id="Layer_1" xmlns="http://www.w3.org/2000/svg" xmlns:xlink="http://www.w3.org/1999/xlink" x="0px" y="0px"
	 viewBox="0 0 1340.7 1417.3" style="enable-background:new 0 0 1340.7 1417.3;" xml:space="preserve">
<g>
	<path d="M1318.4,276c3.6-7,4.1-13.4,3.4-25.5c0-0.4-0.3-5.3-0.7-13.1c-1.6-31.4-6-114.8-6.9-130.3l-0.1-1.1
		c-1.1-18.8-3.6-24-23.6-28c-31.9-6.3-339.1-61.4-352.1-61.9c-5.5-0.2-10.6,0.8-15.2,1.6c-3.3,0.6-6.5,1.2-9.3,1.3
		c-24.7,0.6-614.5-4.1-649.2-4.7c-15.3-0.3-26.6,6.8-31.1,19.4c-3.9,10.8-7.4,21.4-8.1,32.5c-3.3,54.1-6.2,109.2-9.1,162.4
		c-1.1,21.4-2.3,42.8-3.5,64.2c-0.2,3.9-0.7,5.7-1,6.3c-0.5,0.1-1.7,0.3-4.2,0.3c-8.8-0.2-17.7-0.5-26.5-0.7
		c-29.8-0.8-60.7-1.6-91-2.7c-19.8-0.7-28.9,9.8-33.2,18.8c-3.5,7.5-5.6,14.7-6.2,21.6c-1.3,13.9-11,184.6-19.3,334.7
		C14.1,987.5,14.9,990.7,15.4,992.9c3.5,14.7,13.9,23.6,29.3,25.1c11.2,1.1,22.4,2.1,33.6,3.2c25.5,2.3,51.9,4.8,77.6,8
		c3.2,0.4,6,0.7,8.4,0.9c1.8,0.2,3.8,0.4,5.3,0.6c0.2,3.4-0.2,9.5-0.4,12.7c-0.1,1.4-8.4,153-12.6,229.7
		c-1.2,21.9,10,36.3,31.5,40.5c10.1,2,651,87.2,656.5,87.9c8,1,16.2,1.7,24.4,1.7c16.2,0,32.4-2.8,47.8-12.1
		c7.5-0.7,33.3-2.8,60.5-5c53-4.3,125.6-10.2,156.2-13.2c24.6-2.4,49.5-5.2,73.6-7.9c10.3-1.2,20.7-2.3,31-3.5
		c16-1.8,22.9-8.7,24.5-24.8c0.6-5.8,3-45.6,5.6-87.7c2.3-37,4.8-78.9,5.3-83.4c0.3-1.8,0.9-3.7,1.5-5.8c1.1-3.8,2.3-8.1,2.5-12.8
		c1.6-31.4,2.9-63.3,4.3-94.1c0.6-14.2,1.2-28.4,1.9-42.6c0.9-19.3-4-24.9-23.5-26.9c-0.7-0.1-2-0.6-2.7-1.3
		c-4.2-3.7-14.4-16.4-15.7-21.1c1.6-23.6,10-161.2,11.6-189.6c0.6-11.1-5.7-19.6-15.9-21.7l0.4-6.7c0.9-17.2,1.8-35,3.1-52.4
		c13.6-5,17.5-10.7,18.5-26.3c3.3-49.4,6.5-98.8,9.7-148.3c0.5-7,0.8-13.2,1.1-18.8c10.4-2.1,16.6-9.8,17-21.4
		c0.4-10.6,0.9-21.1,1.7-31.1c0.4-4.8,1.2-5.9,1.1-5.9c0,0,0,0,0,0c0.1,0,1.1-0.7,5.1-0.9c5.1,0.2,9.9-1.4,13.8-4.8
		c7.6-6.6,9.9-18.5,10.4-27.3c2.1-36.3,4.1-72.9,6-107.2C1326,286.1,1324.8,280.3,1318.4,276z M234.1,293.8
		c1.2-21.4,2.3-42.8,3.5-64.2c2.9-53.2,5.8-108.2,9.1-162.3c0.5-8.3,3.4-16.9,6.9-26.6c0.6-1.7,2-5.6,10.9-5.4
		c32.8,0.6,561.7,4.8,641,4.8c-20.2,17.5-21,43.5-21,44.5c-0.5,10-11.6,245.9-11.6,256.3c0,1.6-0.1,2.8-0.2,3.7
		c-16-2.4-88.1-13.4-99.5-15.4l-0.5-0.1c0,0-0.6,0-1.5-0.1l-541.4-18.3C232.8,305.6,233.8,299.3,234.1,293.8z M166.4,1009.1
		c-2.3-0.2-4.8-0.5-7.8-0.8c-26.1-3.3-52.7-5.7-78.4-8.1c-11.2-1-22.3-2-33.5-3.1c-6.1-0.6-9.1-2.8-10.6-8.1
		c0.4-28.1,32.7-617,35.8-650.8c0.4-4.3,1.9-9.3,4.3-14.4c2-4.3,5.1-7.1,13.3-6.7c30.4,1.1,61.3,1.9,91.2,2.7
		c2.9,0.1,5.9,0.2,8.8,0.2l0,0.1l550.6,18.6c-8,6.1-14.8,16.1-16.5,32.5c-4.1,40.3-40.2,628.9-41.7,654l0,0.2l0,0.2
		c0.2,9.9,3.3,25.1,11.7,35.9l-518.3-51.1C172.5,1009.7,169.5,1009.4,166.4,1009.1z M192.1,1292.8c-11.3-2.2-15.1-7.1-14.4-18.6
		c4-74.4,12.4-227.3,12.6-229.5c0.6-10.2,0.9-17-0.8-22.4l527.4,52l0,0c1,0.1,2.1,0.1,3.2,0.1c26.7,0,100.6-4.3,122.6-5.7
		c0.5,0,0.9,0.2,1.1,0.4c0.2,0.2,0.4,0.6,0.4,1.1c-2.4,36.2-14.3,234-15.2,273.1c-0.3,14.8,2.9,26.8,9.4,36
		C757.8,1368.9,201.4,1294.4,192.1,1292.8z M1304.2,297.4c-1.8,34.3-3.8,70.8-6,107.1c-0.4,6.9-1.9,10.9-2.9,12.2
		c-0.2,0-0.4,0-0.6,0c-17.2,0.7-25.5,8.8-26.9,26.3c-0.8,10.4-1.4,21.1-1.8,32c0,0.7-0.1,1.1-0.1,1.5c-0.1,0-0.1,0-0.2,0
		c-4.8,0.7-15.9,3.9-16.6,19.4c-0.2,5.6-0.6,11.7-1.1,18.7c-3.2,49.4-6.5,98.8-9.7,148.3c-0.3,4.1-0.6,5.7-0.8,6.3
		c-0.6,0.4-2,1-5.4,2.2c-6.2,2.1-11.7,9.3-12.2,16c-1.3,18.2-2.3,36.7-3.2,54.6l-0.5,8.7c-0.6,10.7,5.7,18.3,16,19.6c0,0,0,0,0,0
		c-1.6,28.7-10.1,168.4-11.6,190c-1,14.7,22.5,37.3,22.7,37.6c3.9,3.6,9.4,6,14.6,6.5c1,0.1,3.1,0.3,4.7,0.6c0,1.6-0.1,3.6-0.1,4.4
		c-0.6,14.2-1.3,28.4-1.9,42.6c-1.3,30.8-2.7,62.7-4.3,94c-0.1,2.3-0.9,5.1-1.8,8.1c-0.7,2.5-1.5,5.2-2,8.1
		c-0.4,2.1-1.3,16.5-5.6,85.6c-2.3,38.2-5,81.6-5.5,86.9c-0.3,3.2-0.7,4.5-0.9,5c-0.5,0.2-1.8,0.6-4.8,1
		c-10.4,1.1-20.7,2.3-31.1,3.5c-24,2.7-48.8,5.5-73.2,7.8c-30.5,2.9-103,8.8-155.9,13.1c-17.9,1.5-33.6,2.7-44.9,3.7
		c-20.7,1.7-20.7,1.7-23.1,3.3c-15.2,9.8-32.1,11.2-52.4,9.4c-1.7-1.2-3.4-2.5-5.1-4.2c-7.4-7.5-11-18.8-10.7-33.6
		c0.8-37.3,12.2-226.9,15.1-272.7c0.2-3.4-1-6.8-3.5-9.2c-2.4-2.4-5.8-3.7-9.2-3.5c-21.9,1.3-95.5,5.7-121.9,5.7
		c-25.5,0-27.4-35.1-27.6-38.4c0.9-15.1,37.6-613.5,41.7-653.3c3.1-30.2,27.8-32.6,35.4-32.6l2,0.1c13.9,2.4,96.4,14.9,102.3,15.8
		c1.7,0.4,3.6-0.1,5.1-1.2c3-2.1,4.3-6.3,4.3-13.4c0-10.2,11.5-253.4,11.6-256c0-0.2,0.7-22.7,17.7-37.2c5.9-5,13.2-8.5,21.7-10.5
		c1.1-0.1,2.2-0.2,3.2-0.1c12.9,1,302.7,52.4,348.9,61.6c1.5,0.3,4.3,0.9,6.1,1.3c0.2,1.8,0.4,4.6,0.6,7.2l0.1,1.2
		c0.9,15.4,5.3,98.7,6.9,130.1c0.4,7.9,0.7,12.8,0.7,13.3c0.8,13.2,0.5,13.5-6.4,22.5c-2.1,2.7-2.7,6.3-1.7,9.6
		c1,3.3,3.6,5.9,6.8,6.9c1.8,0.6,3.7,1.2,5,1.7C1304.4,293.8,1304.3,295.7,1304.2,297.4z"/>
	<path d="M186.8,801.9l313,23.2c16.2,1.2,30.4-11.9,31.4-29.2l21.4-334.7c1.1-17.6-11.4-32.6-27.8-33.3l-315.6-11.3
		c-16-0.6-29.6,12.7-30.5,30L160,769.4C159.1,786.3,171,800.7,186.8,801.9z"/>
	<path d="M218.3,881.9l-45.7-3.1c-6.8-0.5-13.3,1.7-18.3,6.2c-4.9,4.3-7.7,10.3-8,16.8l-1.7,36.3c-0.6,13.7,10.1,25.7,24,26.7
		l46,3.3c0.6,0,1.3,0.1,1.9,0.1c6.2,0,12-2.2,16.6-6.3c4.9-4.4,7.8-10.5,8-17.1l1.4-36.5C243,894.7,232.1,882.9,218.3,881.9z
		 M234.7,944.6c-0.2,4.9-2.3,9.4-5.9,12.6c-3.7,3.3-8.6,5-13.8,4.6l-46-3.3c-10.5-0.8-18.6-9.8-18.1-20.1l1.7-36.3
		c0.2-4.8,2.3-9.2,5.9-12.4c3.4-3,7.7-4.6,12.3-4.6c0.4,0,0.9,0,1.3,0l45.7,3.1c10.5,0.7,18.7,9.6,18.3,19.9L234.7,944.6z"/>
	<path d="M553.1,908.5l-47.3-3.2c-7-0.5-13.7,1.8-18.9,6.4c-5,4.5-8,10.7-8.3,17.4l-1.8,37.6c-0.7,14.1,10.4,26.5,24.8,27.5
		l47.7,3.4c0.7,0,1.3,0.1,2,0.1c6.4,0,12.4-2.3,17.1-6.5c5.1-4.5,8-10.8,8.3-17.6l1.5-37.8C578.6,921.7,567.4,909.5,553.1,908.5z
		 M570.3,973.3c-0.2,5.1-2.4,9.8-6.2,13.2c-3.9,3.5-9,5.2-14.4,4.8l-47.7-3.4c-10.9-0.8-19.4-10.2-18.9-20.9l1.8-37.6
		c0.2-5,2.4-9.6,6.2-13c3.5-3.1,8-4.8,12.8-4.8c0.5,0,0.9,0,1.4,0l47.3,3.2c10.9,0.7,19.5,10,19.1,20.7L570.3,973.3z"/>
	<path d="M313.9,909.9c-5.4,0.2-10.4,3.1-13.9,8c-3.4,4.7-5.1,10.8-4.8,17.1c0.6,13.1,9.6,23.4,20.2,23.4c0.2,0,0.5,0,0.7,0
		c5.4-0.2,10.4-3.1,13.9-8c3.4-4.7,5.1-10.8,4.8-17.1C334.2,919.9,324.8,909.3,313.9,909.9z M324.8,946.8c-2.4,3.3-5.6,5.2-9.1,5.4
		c-7.4,0.3-13.9-7.5-14.3-17.4c-0.2-4.9,1.1-9.6,3.6-13.2c2.4-3.3,5.6-5.2,9.1-5.4c0.2,0,0.3,0,0.5,0c7.3,0,13.4,7.7,13.9,17.4
		C328.7,938.5,327.4,943.2,324.8,946.8z"/>
	<path d="M369.1,915c-5.4,0.2-10.4,3.1-13.9,8c-3.4,4.7-5.1,10.8-4.8,17.1c0.6,13.1,9.6,23.4,20.2,23.4c0.2,0,0.5,0,0.7,0
		c5.4-0.2,10.4-3.1,13.9-8c3.4-4.7,5.1-10.8,4.8-17.1C389.5,925,380.1,914.4,369.1,915z M380.1,951.9c-2.4,3.3-5.6,5.2-9.1,5.4
		c-7.4,0.3-13.9-7.5-14.3-17.4c-0.2-4.9,1.1-9.6,3.6-13.2c2.4-3.3,5.6-5.2,9.1-5.4c0.2,0,0.3,0,0.5,0c7.3,0,13.4,7.7,13.9,17.4
		C383.9,943.6,382.7,948.3,380.1,951.9z"/>
	<path d="M625,958.5c-0.6-13.9-10.9-24.8-23-24.2c-12.1,0.5-21.4,12.3-20.7,26.2c0.6,13.6,10.4,24.2,22.1,24.2c0.3,0,0.6,0,0.9,0
		C616.3,984.1,625.6,972.3,625,958.5L625,958.5z M604,978.3c-8.5,0.4-15.9-7.8-16.4-18.2c-0.5-10.4,6.1-19.2,14.7-19.6
		c0.2,0,0.4,0,0.6,0c8.3,0,15.4,8,15.8,18.2C619.1,969.1,612.5,977.9,604,978.3z"/>
</g>
</svg>
